# xmcd
#
# Track frame offsets:
#   150
#   10809
#   19879
#   29784
#   39367
#   50121
#   61320
#   70825
#   79402
#   93939
#   105650
#   117574
#   125488
#   133868
#   143083
#   155551
#
# Disc length: 2231 seconds
#
# Revision: 0
# Processed by: cddbd v1.5.1PL0 Copyright (c) Steve Scherf et al.
# Submitted via: Media_Universe 3.0
#
DISCID=e608b510
DTITLE=vegas '68 - vegas '68 - twister
DYEAR=2003
DGENRE=Rock
TTITLE0=good rockin' tonight - vegas 68
TTITLE1=summertime blues - vegas 68
TTITLE2=twister (let's twist again) - vegas 68
TTITLE3=come on let's go - vegas 68
TTITLE4=baby let's play house - vegas 68
TTITLE5=donna - vegas 68
TTITLE6=do you wanna dance- vegas 68
TTITLE7=hound dog - vegas 68 
TTITLE8=josephine - vegas 68 
TTITLE9=little sister - vegas 68
TTITLE10=maybelline - vegas 68
TTITLE11=rave on - vegas 68
TTITLE12=rip it up - vegas 68
TTITLE13=rock around the clock - vegas 68
TTITLE14=shakin' all over - vegas 68
TTITLE15=johnny b. goode - vegas 68
EXTD=
EXTT0=
EXTT1=
EXTT2=
EXTT3=
EXTT4=
EXTT5=
EXTT6=
EXTT7=
EXTT8=
EXTT9=
EXTT10=
EXTT11=
EXTT12=
EXTT13=
EXTT14=
EXTT15=
PLAYORDER=
